HIERARCHY
ROOT Hips
{
  OFFSET -292.763 92.8989 420.775
  CHANNELS 6 Xposition Yposition Zposition Zrotation Xrotation Yrotation
  JOINT Spine
  {
    OFFSET 0 8 -1.02523e-05
    CHANNELS 6 Xposition Yposition Zposition Zrotation Xrotation Yrotation
    JOINT Spine1
    {
      OFFSET 1.80916e-05 8 -7.01518e-05
      CHANNELS 6 Xposition Yposition Zposition Zrotation Xrotation Yrotation
      JOINT Spine2
      {
        OFFSET -1.20539e-05 8 0
        CHANNELS 6 Xposition Yposition Zposition Zrotation Xrotation Yrotation
        JOINT Spine3
        {
          OFFSET 0 8 0
          CHANNELS 6 Xposition Yposition Zposition Zrotation Xrotation Yrotation
          JOINT Neck
          {
            OFFSET 0 17 0
            CHANNELS 6 Xposition Yposition Zposition Zrotation Xrotation Yrotation
            JOINT Head
            {
              OFFSET 0 10.8 3.79021e-05
              CHANNELS 6 Xposition Yposition Zposition Zrotation Xrotation Yrotation
              End Site
              {
                OFFSET 0 20.25 0
              }
            }
          }
          JOINT LeftShoulder
          {
            OFFSET 5.00001 17 0
            CHANNELS 6 Xposition Yposition Zposition Zrotation Xrotation Yrotation
            JOINT LeftShoulder2
            {
              OFFSET 6.45 0 0
              CHANNELS 6 Xposition Yposition Zposition Zrotation Xrotation Yrotation
              JOINT LeftArm
              {
                OFFSET 6.44999 0 -1.53931e-05
                CHANNELS 6 Xposition Yposition Zposition Zrotation Xrotation Yrotation
                JOINT LeftForeArm
                {
                  OFFSET 0 -32.4 -1.99996
                  CHANNELS 6 Xposition Yposition Zposition Zrotation Xrotation Yrotation
                  JOINT LeftHand
                  {
                    OFFSET 1.29818e-05 -25.65 2.00001
                    CHANNELS 6 Xposition Yposition Zposition Zrotation Xrotation Yrotation
                    JOINT LeftHandThumb1
                    {
                      OFFSET -0.500029 -1.49992 2.64999
                      CHANNELS 6 Xposition Yposition Zposition Zrotation Xrotation Yrotation
                      JOINT LeftHandThumb2
                      {
                        OFFSET -1.00866e-05 -3.80007 3.69995
                        CHANNELS 6 Xposition Yposition Zposition Zrotation Xrotation Yrotation
                        JOINT LeftHandThumb3
                        {
                          OFFSET 0 -2.99998 2.69996
                          CHANNELS 6 Xposition Yposition Zposition Zrotation Xrotation Yrotation
                          End Site
                          {
                            OFFSET 0 -2.29999 1.79995
                          }
                        }
                      }
                    }
                    JOINT LeftHandIndex
                    {
                      OFFSET 4.89599e-05 -1.89999 1.59998
                      CHANNELS 6 Xposition Yposition Zposition Zrotation Xrotation Yrotation
                      JOINT LeftHandIndex1
                      {
                        OFFSET 7.7194e-05 -8.3 1.90001
                        CHANNELS 6 Xposition Yposition Zposition Zrotation Xrotation Yrotation
                        JOINT LeftHandIndex2
                        {
                          OFFSET 0 -4.49998 0
                          CHANNELS 6 Xposition Yposition Zposition Zrotation Xrotation Yrotation
                          JOINT LeftHandIndex3
                          {
                            OFFSET 0 -3.39996 0
                            CHANNELS 6 Xposition Yposition Zposition Zrotation Xrotation Yrotation
                            End Site
                            {
                              OFFSET 0 -2.59998 -1.93011e-05
                            }
                          }
                        }
                      }
                    }
                    JOINT LeftHandMiddle
                    {
                      OFFSET -0.249955 -2.20001 0.399981
                      CHANNELS 6 Xposition Yposition Zposition Zrotation Xrotation Yrotation
                      JOINT LeftHandMiddle1
                      {
                        OFFSET -5.46338e-05 -8.29994 1.00001
                        CHANNELS 6 Xposition Yposition Zposition Zrotation Xrotation Yrotation
                        JOINT LeftHandMiddle2
                        {
                          OFFSET 0 -4.64999 0
                          CHANNELS 6 Xposition Yposition Zposition Zrotation Xrotation Yrotation
                          JOINT LeftHandMiddle3
                          {
                            OFFSET -2.1284e-05 -3.29999 0
                            CHANNELS 6 Xposition Yposition Zposition Zrotation Xrotation Yrotation
                            End Site
                            {
                              OFFSET 1.40934e-05 -2.69995 0
                            }
                          }
                        }
                      }
                    }
                    JOINT LeftHandRing
                    {
                      OFFSET -0.500036 -2.14996 -0.800014
                      CHANNELS 6 Xposition Yposition Zposition Zrotation Xrotation Yrotation
                      JOINT LeftHandRing1
                      {
                        OFFSET 9.14281e-05 -7.74998 -0.199997
                        CHANNELS 6 Xposition Yposition Zposition Zrotation Xrotation Yrotation
                        JOINT LeftHandRing2
                        {
                          OFFSET 0 -3.79994 0
                          CHANNELS 6 Xposition Yposition Zposition Zrotation Xrotation Yrotation
                          JOINT LeftHandRing3
                          {
                            OFFSET -2.81508e-05 -3.39989 0
                            CHANNELS 6 Xposition Yposition Zposition Zrotation Xrotation Yrotation
                            End Site
                            {
                              OFFSET 2.6342e-05 -2.6001 0
                            }
                          }
                        }
                      }
                    }
                    JOINT LeftHandPinky
                    {
                      OFFSET -0.750019 -1.74999 -1.85001
                      CHANNELS 6 Xposition Yposition Zposition Zrotation Xrotation Yrotation
                      JOINT LeftHandPinky1
                      {
                        OFFSET -1.67784e-05 -7.15002 -1
                        CHANNELS 6 Xposition Yposition Zposition Zrotation Xrotation Yrotation
                        JOINT LeftHandPinky2
                        {
                          OFFSET 1.19208e-05 -2.99991 1.03737e-05
                          CHANNELS 6 Xposition Yposition Zposition Zrotation Xrotation Yrotation
                          JOINT LeftHandPinky3
                          {
                            OFFSET 0 -2.34994 -1.61831e-05
                            CHANNELS 6 Xposition Yposition Zposition Zrotation Xrotation Yrotation
                            End Site
                            {
                              OFFSET 0 -2.10001 -1.13703e-05
                            }
                          }
                        }
                      }
                    }
                  }
                }
              }
            }
          }
          JOINT RightShoulder
          {
            OFFSET -4.99998 17 1.61111e-05
            CHANNELS 6 Xposition Yposition Zposition Zrotation Xrotation Yrotation
            JOINT RightShoulder2
            {
              OFFSET -6.45 0 0
              CHANNELS 6 Xposition Yposition Zposition Zrotation Xrotation Yrotation
              JOINT RightArm
              {
                OFFSET -6.44999 0 -3.62629e-05
                CHANNELS 6 Xposition Yposition Zposition Zrotation Xrotation Yrotation
                JOINT RightForeArm
                {
                  OFFSET -6.99941e-05 -32.4 -2.00006
                  CHANNELS 6 Xposition Yposition Zposition Zrotation Xrotation Yrotation
                  JOINT RightHand
                  {
                    OFFSET 0 -25.65 2.00002
                    CHANNELS 6 Xposition Yposition Zposition Zrotation Xrotation Yrotation
                    JOINT RightHandThumb1
                    {
                      OFFSET 0.500012 -1.5 2.6501
                      CHANNELS 6 Xposition Yposition Zposition Zrotation Xrotation Yrotation
                      JOINT RightHandThumb2
                      {
                        OFFSET 5.20228e-05 -3.80006 3.7
                        CHANNELS 6 Xposition Yposition Zposition Zrotation Xrotation Yrotation
                        JOINT RightHandThumb3
                        {
                          OFFSET -1.93663e-05 -3 2.69999
                          CHANNELS 6 Xposition Yposition Zposition Zrotation Xrotation Yrotation
                          End Site
                          {
                            OFFSET -7.82097e-05 -2.3 1.80001
                          }
                        }
                      }
                    }
                    JOINT RightHandIndex
                    {
                      OFFSET -4.65075e-05 -1.9 1.59999
                      CHANNELS 6 Xposition Yposition Zposition Zrotation Xrotation Yrotation
                      JOINT RightHandIndex1
                      {
                        OFFSET 9.2772e-05 -8.30008 1.90005
                        CHANNELS 6 Xposition Yposition Zposition Zrotation Xrotation Yrotation
                        JOINT RightHandIndex2
                        {
                          OFFSET 7.03715e-05 -4.50008 3.13223e-05
                          CHANNELS 6 Xposition Yposition Zposition Zrotation Xrotation Yrotation
                          JOINT RightHandIndex3
                          {
                            OFFSET 6.82978e-05 -3.4 2.81859e-05
                            CHANNELS 6 Xposition Yposition Zposition Zrotation Xrotation Yrotation
                            End Site
                            {
                              OFFSET 0 -2.6 0.00231456
                            }
                          }
                        }
                      }
                    }
                    JOINT RightHandMiddle
                    {
                      OFFSET 0.249999 -2.19995 0.400034
                      CHANNELS 6 Xposition Yposition Zposition Zrotation Xrotation Yrotation
                      JOINT RightHandMiddle1
                      {
                        OFFSET 2.73281e-05 -8.29995 0.999981
                        CHANNELS 6 Xposition Yposition Zposition Zrotation Xrotation Yrotation
                        JOINT RightHandMiddle2
                        {
                          OFFSET 0 -4.65 5.64909e-05
                          CHANNELS 6 Xposition Yposition Zposition Zrotation Xrotation Yrotation
                          JOINT RightHandMiddle3
                          {
                            OFFSET -4.84799e-05 -3.30001 0
                            CHANNELS 6 Xposition Yposition Zposition Zrotation Xrotation Yrotation
                            End Site
                            {
                              OFFSET -1.74252e-05 -2.70005 4.41968e-05
                            }
                          }
                        }
                      }
                    }
                    JOINT RightHandRing
                    {
                      OFFSET 0.500013 -2.15007 -0.799971
                      CHANNELS 6 Xposition Yposition Zposition Zrotation Xrotation Yrotation
                      JOINT RightHandRing1
                      {
                        OFFSET 6.61902e-05 -7.75006 -0.200034
                        CHANNELS 6 Xposition Yposition Zposition Zrotation Xrotation Yrotation
                        JOINT RightHandRing2
                        {
                          OFFSET -5.29407e-05 -3.8 5.12224e-05
                          CHANNELS 6 Xposition Yposition Zposition Zrotation Xrotation Yrotation
                          JOINT RightHandRing3
                          {
                            OFFSET -6.67217e-05 -3.39999 1.17837e-05
                            CHANNELS 6 Xposition Yposition Zposition Zrotation Xrotation Yrotation
                            End Site
                            {
                              OFFSET 8.88506e-05 -2.59996 7.83732e-05
                            }
                          }
                        }
                      }
                    }
                    JOINT RightHandPinky
                    {
                      OFFSET 0.749982 -1.74997 -1.85003
                      CHANNELS 6 Xposition Yposition Zposition Zrotation Xrotation Yrotation
                      JOINT RightHandPinky1
                      {
                        OFFSET -5.44773e-05 -7.15002 -1.00009
                        CHANNELS 6 Xposition Yposition Zposition Zrotation Xrotation Yrotation
                        JOINT RightHandPinky2
                        {
                          OFFSET -6.51117e-05 -3 8.1476e-05
                          CHANNELS 6 Xposition Yposition Zposition Zrotation Xrotation Yrotation
                          JOINT RightHandPinky3
                          {
                            OFFSET -2.71005e-05 -2.34999 -2.22417e-05
                            CHANNELS 6 Xposition Yposition Zposition Zrotation Xrotation Yrotation
                            End Site
                            {
                              OFFSET -6.96964e-05 -2.09998 1.32209e-05
                            }
                          }
                        }
                      }
                    }
                  }
                }
              }
            }
          }
        }
      }
    }
  }
  JOINT LeftUpLeg
  {
    OFFSET 8 0 1.51479e-05
    CHANNELS 6 Xposition Yposition Zposition Zrotation Xrotation Yrotation
    JOINT LeftLeg
    {
      OFFSET 1.87605e-05 -45 -1
      CHANNELS 6 Xposition Yposition Zposition Zrotation Xrotation Yrotation
      JOINT LeftFoot
      {
        OFFSET -2.50227e-05 -41 -2
        CHANNELS 6 Xposition Yposition Zposition Zrotation Xrotation Yrotation
        JOINT LeftToeBase
        {
          OFFSET 5.16587e-05 -7.50001 12.5
          CHANNELS 6 Xposition Yposition Zposition Zrotation Xrotation Yrotation
          JOINT LeftFootToe
          {
            OFFSET 0 0 4
            CHANNELS 6 Xposition Yposition Zposition Zrotation Xrotation Yrotation
            End Site
            {
              OFFSET 0 0 0
            }
          }
        }
      }
    }
  }
  JOINT RightUpLeg
  {
    OFFSET -8 0 -1.51479e-05
    CHANNELS 6 Xposition Yposition Zposition Zrotation Xrotation Yrotation
    JOINT RightLeg
    {
      OFFSET 1.22528e-05 -45 -0.999936
      CHANNELS 6 Xposition Yposition Zposition Zrotation Xrotation Yrotation
      JOINT RightFoot
      {
        OFFSET 1.98675e-05 -41 -2.00003
        CHANNELS 6 Xposition Yposition Zposition Zrotation Xrotation Yrotation
        JOINT RightToeBase
        {
          OFFSET 0 -7.5 12.4999
          CHANNELS 6 Xposition Yposition Zposition Zrotation Xrotation Yrotation
          JOINT RightFootToe
          {
            OFFSET 0 0 4
            CHANNELS 6 Xposition Yposition Zposition Zrotation Xrotation Yrotation
            End Site
            {
              OFFSET 0 0 0
            }
          }
        }
      }
    }
  }
}
MOTION
Frames:	3
Frame Time:	0.0111111
-299.092 92.7368 419.787 -0.915127 -1.35709 29.3814 0 8 0 13.12 -4.32311 1.74861 0 8 2.84217e-14 3.3001 1.51453 2.1643 0 8 0 1.65766 0.741999 1.09333 0 8 0 1.66658 0.741893 1.09072 0 17 2.84217e-14 -2.39234 -0.925882 11.5483 0 10.8 0 -5.39849 -2.89725 27.0983 5 17 5.68434e-14 0.216866 -2.55381 -1.62253 6.45 0 0 0.183992 -0.899916 -1.20312 6.45 0 0 19.5165 -35.3469 9.0453 0 -32.4 -2 -11.7224 -59.1488 32.4056 5.68434e-14 -25.65 2 17.3092 4.70116 35.9319 -0.5 -1.5 2.65 -3.12985 -13.2516 6.27799 0 -3.8 3.7 0.00154314 -0.125567 0.0157459 -1.13687e-13 -3 2.7 0.0197052 48.3716 0.00743136 0 -1.9 1.6 2.40548e-06 -2.52571e-06 -3.7517e-06 0 -8.3 1.9 -28.2381 32.6678 9.39164 5.68434e-14 -4.5 1.42109e-14 -65.754 0.013234 0.0618636 0 -3.4 0 -47.718 -0.0365939 0.0512649 -0.25 -2.2 0.4 2.40548e-06 -2.52571e-06 -3.7517e-06 0 -8.3 1 -44.9069 28.3735 14.1546 2.84217e-14 -4.65 0 -38.6717 0.10127 0.0624029 2.84217e-14 -3.3 0 -27.3482 0.0374573 0.0616632 -0.5 -2.15 -0.8 2.40548e-06 -2.52571e-06 -3.7517e-06 0 -7.75 -0.2 -54.848 22.0134 15.1994 2.84217e-14 -3.8 0 -22.8724 0.0359768 0.032068 2.84217e-14 -3.4 0 -17.6863 0.015039 0.0261743 -0.75 -1.75 -1.85 2.40548e-06 -2.52571e-06 -3.7517e-06 0 -7.15 -1 -57.1278 12.4422 10.9795 0 -3 0 -56.7854 0.00560532 0.0255296 0 -2.35 2.84217e-14 -39.5206 -0.00867514 0.0194851 -5 17 -2.84217e-14 -2.28739 -4.96501 0.427582 -6.45 0 2.84217e-14 -1.8688 1.28387 -0.492302 -6.45 -2.84217e-14 0 0.403765 -49.6218 30.5428 1.13687e-13 -32.4 -2 111.72 -64.8151 105.208 0 -25.65 2 -4.76018 -7.62386 1.92934 0.5 -1.5 2.65 135.68 32.518 -159.52 5.68434e-14 -3.8 3.7 0.23162 38.9086 0.0193049 5.68434e-14 -3 2.7 -0.339645 13.0226 0.19557 0 -1.9 1.6 6.60064e-06 -2.8455e-06 -7.90823e-06 0 -8.3 1.9 5.01903 -17.7352 0.609743 -1.13687e-13 -4.5 -2.84217e-14 20.1519 0.269589 -0.0107861 0 -3.4 2.84217e-14 15.3413 0.17288 -0.0553537 0.25 -2.2 0.4 6.60064e-06 -2.8455e-06 -7.90823e-06 1.13687e-13 -8.3 1 7.46448 -20.3727 0.829938 0 -4.65 0 48.9258 0.00863069 0.0234414 5.68434e-14 -3.3 -5.68434e-14 33.8046 0.0133369 0.00982623 0.5 -2.15 -0.8 6.60064e-06 -2.8455e-06 -7.90823e-06 0 -7.75 -0.2 5.03035 -17.4004 0.219733 0 -3.8 -5.68434e-14 10.3769 -0.00334005 -0.000469544 0 -3.4 0 9.07033 -0.00143868 -0.0029779 0.75 -1.75 -1.85 6.60064e-06 -2.8455e-06 -7.90823e-06 0 -7.15 -1 3.79177 -15.4188 -0.0516381 0 -3 2.84217e-14 0.0879401 0.0129132 -0.017048 1.13687e-13 -2.35 2.84217e-14 -3.2005e-05 0.00986146 -0.0121516 8 0 -2.84217e-14 3.12413 -12.5957 21.5029 1.13687e-13 -45 -1 -0.737165 28.148 -9.89777 -5.68434e-14 -41 -2 6.7264 -14.2541 -14.7325 5.68434e-14 -7.5 12.5 -1.81598e-07 -5.36019e-07 -3.33964e-06 0 0 4 5.84147 -3.85076 37.4402 -8 0 0 -0.186707 0.642971 -1.72136 -5.68434e-14 -45 -1 -0.0285221 6.87737 1.1123 0 -41 -2 1.56207 -6.76624 -24.466 5.68434e-14 -7.5 12.5 -0.000181219 0.0151263 1.58785e-05 -5.68434e-14 0 4 -5.04022 1.12482 38.9554 
-299.235 92.7261 419.795 -0.992593 -1.45121 29.5586 0 8 0 13.4028 -4.3966 1.79452 5.68434e-14 8 0 3.36131 1.49663 2.1853 0 8 -2.84217e-14 1.68827 0.732607 1.10391 0 8 0 1.68993 0.732599 1.10178 0 17 -2.84217e-14 -2.45983 -0.907607 11.5678 0 10.8 2.84217e-14 -5.44376 -2.88105 27.1437 5 17 0 0.139292 -2.56872 -1.6063 6.45 0 0 0.181384 -0.91103 -1.20303 6.45 0 0 19.6527 -35.5266 9.02439 0 -32.4 -2 -11.7336 -58.9281 32.9185 0 -25.65 2 17.2928 5.22153 36.184 -0.5 -1.5 2.65 -3.66519 -12.6402 5.53427 -5.68434e-14 -3.8 3.7 0.00148809 0.0747398 0.0157459 -5.68434e-14 -3 2.7 0.0269534 50.0416 0.00768668 -5.68434e-14 -1.9 1.6 2.40548e-06 -2.52571e-06 -3.7517e-06 5.68434e-14 -8.3 1.9 -27.5226 32.542 9.10711 0 -4.5 0 -63.9973 0.0175802 0.0616225 -2.84217e-14 -3.4 1.42109e-14 -45.9929 -0.0306252 0.0537088 -0.25 -2.2 0.4 2.40548e-06 -2.52571e-06 -3.7517e-06 0 -8.3 1 -43.8155 28.7407 13.958 0 -4.65 0 -36.3953 0.114264 0.0516356 2.84217e-14 -3.3 1.42109e-14 -25.9579 0.0484087 0.0586209 -0.5 -2.15 -0.8 2.40548e-06 -2.52571e-06 -3.7517e-06 0 -7.75 -0.2 -53.7519 22.3021 14.977 2.84217e-14 -3.8 2.84217e-14 -21.797 0.0308468 0.0179708 0 -3.4 0 -17.0173 0.0149175 0.0167378 -0.75 -1.75 -1.85 2.40548e-06 -2.52571e-06 -3.7517e-06 -1.13687e-13 -7.15 -1 -56.5066 12.6073 10.8923 2.84217e-14 -3 2.84217e-14 -55.8488 0.0105154 0.0188227 0 -2.35 5.68434e-14 -38.7761 -0.00116658 0.0180692 -5 17 -2.84217e-14 -2.43745 -5.01539 0.400538 -6.45 -5.68434e-14 2.84217e-14 -1.86864 1.29124 -0.505566 -6.45 -2.84217e-14 0 0.787101 -49.4356 30.7756 0 -32.4 -2 111.246 -65.2343 104.663 0 -25.65 2 -3.74081 -7.5583 1.48141 0.5 -1.5 2.65 135.914 33.1083 -159.772 0 -3.8 3.7 0.231656 38.8259 0.0192824 0 -3 2.7 -0.339645 13.0226 0.19557 1.13687e-13 -1.9 1.6 6.60064e-06 -2.8455e-06 -7.90823e-06 0 -8.3 1.9 4.71522 -17.266 0.551258 1.13687e-13 -4.5 8.52651e-14 15.6865 0.239082 0.0127733 0 -3.4 5.68434e-14 12.3169 0.165936 -0.0291611 0.25 -2.2 0.4 6.60064e-06 -2.8455e-06 -7.90823e-06 1.13687e-13 -8.3 1 7.08756 -19.8916 0.758728 0 -4.65 -2.84217e-14 48.985 0.0357948 0.00495751 0 -3.3 0 33.8417 0.0217579 -0.0104137 0.5 -2.15 -0.8 6.60064e-06 -2.8455e-06 -7.90823e-06 0 -7.75 -0.2 4.78239 -17.0019 0.192566 1.13687e-13 -3.8 -8.52651e-14 10.2455 0.013421 -0.000469544 0 -3.4 -2.84217e-14 8.96161 0.0117501 -0.0029779 0.75 -1.75 -1.85 6.60064e-06 -2.8455e-06 -7.90823e-06 -1.13687e-13 -7.15 -1 3.63217 -15.1042 -0.0574268 1.13687e-13 -3 2.84217e-14 0.0879401 0.0129132 -0.017048 1.13687e-13 -2.35 -5.68434e-14 -3.2005e-05 0.00986146 -0.0121516 8 0 2.84217e-14 3.34662 -12.6807 21.5003 0 -45 -1 -0.737972 28.3347 -9.8965 5.68434e-14 -41 -2 6.67456 -14.3127 -14.8406 5.68434e-14 -7.5 12.5 -1.81598e-07 -5.36019e-07 -3.33964e-06 5.68434e-14 2.22045e-16 4 5.90904 -3.82943 37.4381 -8 0 -5.68434e-14 0.0188055 0.669076 -1.72342 -5.68434e-14 -45 -1 -0.028499 6.8762 1.11229 5.68434e-14 -41 -2 1.47151 -6.75307 -24.5484 0 -7.5 12.5 -0.00018122 0.01797 1.58785e-05 0 2.77556e-17 4 -4.97237 1.16441 38.8847 
-299.377 92.7149 419.8 -1.06867 -1.5466 29.7419 5.68434e-14 8 0 13.6706 -4.46349 1.85117 5.68434e-14 8 5.68434e-14 3.40776 1.47786 2.20942 0 8 -5.68434e-14 1.71151 0.72282 1.116 0 8 -2.84217e-14 1.70846 0.722274 1.11486 0 17 -2.84217e-14 -2.49137 -0.886423 11.5848 5.68434e-14 10.8 -2.84217e-14 -5.46382 -2.84493 27.1841 5 17 2.84217e-14 0.125906 -2.59142 -1.56544 6.45 -5.68434e-14 5.68434e-14 0.178088 -0.91722 -1.21161 6.45 0 -2.84217e-14 19.6948 -35.7058 8.84175 0 -32.4 -2 -11.6249 -58.6677 33.4471 0 -25.65 2 17.2961 5.70861 36.3389 -0.5 -1.5 2.65 -4.1087 -12.1158 4.87141 0 -3.8 3.7 0.00139563 0.411167 0.0157463 -5.68434e-14 -3 2.7 0.0258551 51.3041 0.00708039 0 -1.9 1.6 2.40548e-06 -2.52571e-06 -3.7517e-06 0 -8.3 1.9 -26.7171 32.3846 8.79115 0 -4.5 -1.42109e-14 -62.1754 0.017497 0.0552086 0 -3.4 1.42109e-14 -44.2802 -0.0244245 0.0488919 -0.25 -2.2 0.4 2.40548e-06 -2.52571e-06 -3.7517e-06 0 -8.3 1 -42.7669 29.0717 13.7623 2.84217e-14 -4.65 -1.42109e-14 -34.2041 0.105096 0.0384772 5.68434e-14 -3.3 2.84217e-14 -24.6268 0.0474528 0.0485557 -0.5 -2.15 -0.8 2.40548e-06 -2.52571e-06 -3.7517e-06 0 -7.75 -0.2 -52.7378 22.5519 14.7664 0 -3.8 0 -21.0908 0.0221107 0.00821304 2.84217e-14 -3.4 0 -16.5777 0.011986 0.00873575 -0.75 -1.75 -1.85 2.40548e-06 -2.52571e-06 -3.7517e-06 0 -7.15 -1 -56.0122 12.7356 10.8223 0 -3 -2.84217e-14 -55.1129 0.0113429 0.0128397 0 -2.35 0 -38.1981 0.00313154 0.0149306 -5 17 -2.84217e-14 -2.55875 -5.07494 0.349796 -6.45 2.84217e-14 0 -1.86794 1.30108 -0.524321 -6.45 0 0 1.0742 -49.2331 30.9238 0 -32.4 -2 110.992 -65.6769 104.552 0 -25.65 2 -2.78816 -7.42774 1.0486 0.5 -1.5 2.65 135.925 33.5461 -159.889 5.68434e-14 -3.8 3.7 0.231669 38.7957 0.0192743 0 -3 2.7 -0.339003 13.0226 0.19557 0 -1.9 1.6 6.60064e-06 -2.8455e-06 -7.90823e-06 1.13687e-13 -8.3 1.9 4.53822 -16.9991 0.515398 0 -4.5 -2.84217e-14 12.372 0.191009 0.0238815 5.68434e-14 -3.4 -2.84217e-14 10.0649 0.140035 -0.0109036 0.25 -2.2 0.4 6.60064e-06 -2.8455e-06 -7.90823e-06 0 -8.3 1 6.73158 -19.4675 0.696746 -5.68434e-14 -4.65 -5.68434e-14 48.5788 0.0453946 -0.00163859 2.84217e-14 -3.3 -8.52651e-14 33.5744 0.0247248 -0.0175979 0.5 -2.15 -0.8 6.60064e-06 -2.8455e-06 -7.90823e-06 0 -7.75 -0.2 4.57506 -16.6835 0.169189 0 -3.8 2.84217e-14 9.96654 0.0200492 -0.000469544 5.68434e-14 -3.4 -2.84217e-14 8.7377 0.0168889 -0.0029779 0.75 -1.75 -1.85 6.60064e-06 -2.8455e-06 -7.90823e-06 1.13687e-13 -7.15 -1 3.50287 -14.8654 -0.0637936 0 -3 5.68434e-14 0.0879401 0.0129132 -0.017048 0 -2.35 -2.84217e-14 -3.2005e-05 0.00986146 -0.0121516 8 0 0 3.55823 -12.7681 21.4746 0 -45 -1 -0.738349 28.5192 -9.89587 -5.68434e-14 -41 -2 6.62718 -14.3717 -14.9274 0 -7.5 12.5 -1.81598e-07 -5.36019e-07 -3.33964e-06 0 2.22045e-16 4 5.97496 -3.80356 37.436 -8 -2.84217e-14 0 0.216657 0.693248 -1.74122 0 -45 -1 -0.0285468 6.87864 1.1123 0 -41 -2 1.38766 -6.74041 -24.6023 5.68434e-14 -7.5 12.5 -0.00018122 0.0207536 1.58785e-05 5.68434e-14 2.77556e-17 4 -4.90581 1.20856 38.8045 
